<?xml version="1.0" standalone="no"?>
<!DOCTYPE svg PUBLIC "-//W3C//DTD SVG 20010904//EN"
 "http://www.w3.org/TR/2001/REC-SVG-20010904/DTD/svg10.dtd">
<svg version="1.0" xmlns="http://www.w3.org/2000/svg"
 width="500.000000pt" height="500.000000pt" viewBox="0 0 500.000000 500.000000"
 preserveAspectRatio="xMidYMid meet">

<g transform="translate(0.000000,500.000000) scale(0.100000,-0.100000)"
fill="#000000" stroke="none">
<path d="M2233 3810 c-531 -115 -928 -509 -1043 -1035 -30 -137 -30 -399 0
-545 78 -385 314 -705 667 -906 97 -55 208 -98 343 -132 96 -24 122 -27 300
-27 178 0 204 3 300 27 273 69 488 193 672 386 304 320 428 756 339 1189 -93
452 -421 834 -850 988 -160 58 -214 67 -431 71 -176 3 -218 1 -297 -16z m422
-30 c528 -61 961 -444 1097 -970 40 -154 49 -365 23 -520 -44 -268 -156 -488
-349 -687 -249 -258 -568 -393 -926 -393 -343 0 -650 124 -896 362 -191 185
-313 407 -371 678 -14 65 -18 127 -17 265 1 168 3 188 31 295 62 231 173 429
332 589 100 101 168 154 277 216 250 143 514 197 799 165z"/>
<path d="M2306 3709 c-364 -53 -720 -310 -893 -644 -95 -184 -136 -354 -135
-557 2 -351 120 -638 361 -879 360 -359 883 -456 1361 -251 161 69 360 224
469 366 322 417 344 980 56 1427 -143 222 -397 414 -655 498 -147 47 -395 65
-564 40z m386 -114 c636 -111 1049 -751 889 -1377 -37 -143 -125 -318 -210
-418 l-30 -35 -1 291 0 290 -175 119 c-159 108 -177 117 -197 106 -13 -6 -97
-58 -188 -114 l-165 -103 -3 -481 -2 -481 -23 -6 c-29 -8 -151 -8 -171 0 -14
6 -16 66 -16 579 l0 572 -174 118 c-96 65 -180 115 -188 112 -7 -3 -92 -54
-188 -114 l-175 -109 -5 -394 -5 -395 -53 70 c-71 94 -155 268 -189 390 -26
92 -28 114 -28 285 0 172 2 192 28 284 111 399 418 698 815 796 42 10 91 21
107 23 74 10 270 6 347 -8z m-702 -1511 l0 -575 -51 28 c-27 15 -86 56 -130
91 l-79 62 0 408 0 407 123 77 c67 42 125 77 130 77 4 1 7 -258 7 -575z m938
-116 l-3 -502 -87 -28 c-48 -15 -106 -31 -128 -34 l-40 -7 0 461 0 460 122 76
c68 42 126 76 130 76 5 0 7 -226 6 -502z"/>
<path d="M2437 3248 l-247 -152 0 -182 0 -181 40 -27 40 -26 2 187 3 186 165
103 165 102 3 -428 2 -429 178 111 c97 61 183 113 190 115 7 3 44 -15 82 -41
38 -25 72 -46 75 -46 3 0 5 126 5 279 l0 279 -224 151 c-124 83 -226 151 -229
151 -2 0 -114 -68 -250 -152z"/>
</g>
</svg>
